<svg id="Layer_1" data-name="Layer 1" xmlns="http://www.w3.org/2000/svg" xmlns:xlink="http://www.w3.org/1999/xlink" viewBox="0 0 523 254"><defs><style>.cls-1{fill:none;}.cls-2{fill:#fff;}.cls-3{fill:#d9d9d9;}.cls-4{fill:#edb5b5;}.cls-5{fill:#c00000;}.cls-6{fill:#deebf7;}.cls-7{fill:#002060;}.cls-8{fill:#a5a5a5;}.cls-9{fill:#a9d18e;}.cls-10{fill:#385723;}.cls-11{fill:#ffe699;}.cls-12{fill:#7f6000;}.cls-13{font-size:10px;}.cls-13,.cls-54,.cls-60{font-family:Calibri;}.cls-14{letter-spacing:0em;}.cls-15{letter-spacing:0.01em;}.cls-16{letter-spacing:0.01em;}.cls-17{letter-spacing:0em;}.cls-18{letter-spacing:0em;}.cls-19{letter-spacing:0em;}.cls-20{letter-spacing:-0.01em;}.cls-21{letter-spacing:0.01em;}.cls-22{letter-spacing:-0.01em;}.cls-23{letter-spacing:0em;}.cls-24{letter-spacing:3.36em;}.cls-25{letter-spacing:0em;}.cls-26{letter-spacing:0.01em;}.cls-27{letter-spacing:-0.01em;}.cls-28{letter-spacing:-0.01em;}.cls-29{letter-spacing:0em;}.cls-30{letter-spacing:1.78em;}.cls-31{letter-spacing:0em;}.cls-32{letter-spacing:0em;}.cls-33{letter-spacing:0em;}.cls-34{letter-spacing:-0.01em;}.cls-35{letter-spacing:2.34em;}.cls-36{letter-spacing:0.01em;}.cls-37{letter-spacing:-0.01em;}.cls-38{letter-spacing:0em;}.cls-39{letter-spacing:-0.01em;}.cls-40{letter-spacing:0em;}.cls-41{letter-spacing:0.01em;}.cls-42{letter-spacing:1.17em;}.cls-43{letter-spacing:0em;}.cls-44{letter-spacing:0em;}.cls-45{letter-spacing:0em;}.cls-46{letter-spacing:1.45em;}.cls-47{letter-spacing:0em;}.cls-48{letter-spacing:-0.01em;}.cls-49{letter-spacing:0.01em;}.cls-50{letter-spacing:-0.01em;}.cls-51{letter-spacing:0.02em;}.cls-52{letter-spacing:-0.01em;}.cls-53{letter-spacing:0.01em;}.cls-54{font-size:11.07px;letter-spacing:0em;}.cls-55{letter-spacing:-0.01em;}.cls-56{letter-spacing:0em;}.cls-57{letter-spacing:0.02em;}.cls-58{letter-spacing:0em;}.cls-59{letter-spacing:0em;}.cls-60{font-size:15.6px;}.cls-61{letter-spacing:0.01em;}.cls-62{letter-spacing:-0.01em;}.cls-63{letter-spacing:0.01em;}.cls-64{letter-spacing:0em;}.cls-65{letter-spacing:-0.01em;}.cls-66{letter-spacing:0em;}.cls-67{letter-spacing:0em;}.cls-68{letter-spacing:0em;}.cls-69{letter-spacing:0.01em;}.cls-70{letter-spacing:-0.01em;}.cls-71{letter-spacing:-0.01em;}.cls-72{letter-spacing:0em;}.cls-73{letter-spacing:0em;}.cls-74{letter-spacing:0.01em;}.cls-75{letter-spacing:0em;}.cls-76{letter-spacing:0em;}.cls-77{letter-spacing:0.01em;}.cls-78{letter-spacing:0.01em;}.cls-79{letter-spacing:0em;}.cls-80{letter-spacing:0.01em;}.cls-81{letter-spacing:-0.01em;}.cls-82{letter-spacing:0.01em;}.cls-83{letter-spacing:-0.01em;}.cls-84{letter-spacing:0em;}.cls-85{letter-spacing:-0.01em;}.cls-86{letter-spacing:0.01em;}.cls-87{letter-spacing:0.01em;}.cls-88{clip-path:url(#clip-path);}.cls-89{clip-path:url(#clip-path-2);}</style><clipPath id="clip-path"><rect class="cls-1" x="6.4" y="5.44" width="511.2" height="243.12"/></clipPath><clipPath id="clip-path-2"><rect class="cls-1" x="-44" y="-269.06" width="612" height="792"/></clipPath></defs><title>Artboard 1</title><rect class="cls-2" x="6.88" y="6.04" width="510.24" height="242.16"/><path class="cls-3" d="M62.2,46.84H497.92v.84H62.2Zm0,25H497.92v.84H62.2Zm0,25H497.92v.84H62.2Zm0,25H497.92v.84H62.2Zm0,25H497.92v.84H62.2Zm0,24.84H497.92v.84H62.2Z"/><path class="cls-4" d="M475.24,182.68H494.8V197H475.24Zm-76.8-25.8H418V197H398.44Zm-76.92-80h19.56V197H321.52Zm-76.92,87.6h19.56V197H244.6Zm-76.92-61.8h19.68V197H167.68ZM90.88,87.16h19.44V197H90.88Z"/><path class="cls-5" d="M475.72,197l-.48-.48H494.8l-.36.48V182.68l.36.36H475.24l.48-.36m-.84,0c0-.24.12-.48.36-.48H494.8a.52.52,0,0,1,.48.48V197c0,.24-.24.36-.48.36H475.24a.32.32,0,0,1-.36-.36ZM398.8,197l-.36-.48H418l-.36.48V156.88l.36.48H398.44l.36-.48ZM398,156.88c0-.24.24-.36.48-.36H418c.24,0,.48.12.48.36V197c0,.24-.24.36-.48.36H398.44c-.24,0-.48-.12-.48-.36ZM321.88,197l-.36-.48h19.56l-.36.48V76.84l.36.48H321.52l.36-.48ZM321,76.84a.54.54,0,0,1,.48-.36h19.56a.38.38,0,0,1,.36.36V197a.32.32,0,0,1-.36.36H321.52c-.24,0-.48-.12-.48-.36ZM245.08,197l-.48-.48h19.56l-.48.48V164.44l.48.36H244.6l.48-.36Zm-.84-32.52a.54.54,0,0,1,.36-.48h19.56c.24,0,.36.24.36.48V197a.32.32,0,0,1-.36.36H244.6a.38.38,0,0,1-.36-.36ZM168.16,197l-.48-.48h19.68l-.48.48V102.64l.48.36H167.68l.48-.36Zm-.84-94.32a.32.32,0,0,1,.36-.36h19.68a.38.38,0,0,1,.36.36V197a.38.38,0,0,1-.36.36H167.68a.32.32,0,0,1-.36-.36ZM91.24,197l-.36-.48h19.44L110,197V87.16l.36.48H90.88l.36-.48Zm-.72-109.8a.32.32,0,0,1,.36-.36h19.44c.24,0,.48.12.48.36V197c0,.24-.24.36-.48.36H90.88a.32.32,0,0,1-.36-.36Z"/><path class="cls-6" d="M449.68,196h19.56v1H449.68Zm-76.8-4.32h19.44V197H372.88Zm-77-4.08h19.68V197H295.84ZM218.92,192h19.56V197H218.92Zm-76.8-9.24h19.56V197H142.12Zm-76.92-.36H84.76V197H65.2Z"/><path class="cls-7" d="M450,197l-.36-.48h19.56l-.36.48v-1l.36.36H449.68L450,196m-.84,0a.52.52,0,0,1,.48-.48h19.56a.52.52,0,0,1,.48.48v1c0,.24-.24.36-.48.36H449.68c-.24,0-.48-.12-.48-.36Zm-76,1-.36-.48h19.44l-.48.48v-5.28l.48.48H372.88l.36-.48Zm-.84-5.28c0-.24.24-.36.48-.36h19.44a.32.32,0,0,1,.36.36V197a.32.32,0,0,1-.36.36H372.88c-.24,0-.48-.12-.48-.36ZM296.32,197l-.48-.48h19.68L315,197V187.6l.48.36H295.84l.48-.36Zm-.84-9.36c0-.24.12-.48.36-.48h19.68c.24,0,.36.24.36.48V197a.32.32,0,0,1-.36.36H295.84a.32.32,0,0,1-.36-.36ZM219.28,197l-.36-.48h19.56l-.36.48V192l.36.36H218.92l.36-.36Zm-.84-4.92a.52.52,0,0,1,.48-.48h19.56a.52.52,0,0,1,.48.48V197c0,.24-.24.36-.48.36H218.92c-.24,0-.48-.12-.48-.36Zm-76,4.92-.36-.48h19.56l-.36.48V182.8l.36.36H142.12l.36-.36Zm-.84-14.16a.52.52,0,0,1,.48-.48h19.56a.52.52,0,0,1,.48.48V197c0,.24-.24.36-.48.36H142.12c-.24,0-.48-.12-.48-.36ZM65.56,197l-.36-.48H84.76l-.48.48V182.44l.48.36H65.2l.36-.36Zm-.84-14.52a.52.52,0,0,1,.48-.48H84.76c.24,0,.36.24.36.48V197a.32.32,0,0,1-.36.36H65.2c-.24,0-.48-.12-.48-.36Z"/><path class="cls-8" d="M449.68,194.8h19.56V196H449.68Zm-76.8-3.72h19.44v.6H372.88Zm-77-4.56h19.68v1.08H295.84Zm-76.92,3.72h19.56V192H218.92ZM142.12,181h19.56v1.8H142.12ZM65.2,179.56H84.76v2.88H65.2Z"/><path d="M450,196l-.36-.48h19.56l-.36.48v-1.2l.36.36H449.68l.36-.36m-.84,0a.52.52,0,0,1,.48-.48h19.56a.52.52,0,0,1,.48.48V196c0,.24-.24.36-.48.36H449.68c-.24,0-.48-.12-.48-.36Zm-76-3.12-.36-.36h19.44l-.48.36v-.6l.48.36H372.88l.36-.36Zm-.84-.6a.52.52,0,0,1,.48-.48h19.44c.24,0,.36.24.36.48v.6c0,.24-.12.48-.36.48H372.88a.52.52,0,0,1-.48-.48Zm-76.08-3.48-.48-.48h19.68l-.48.48v-1.08l.48.48H295.84l.48-.48Zm-.84-1.08a.32.32,0,0,1,.36-.36h19.68a.32.32,0,0,1,.36.36v1.08a.32.32,0,0,1-.36.36H295.84a.32.32,0,0,1-.36-.36ZM219.28,192l-.36-.48h19.56l-.36.48v-1.8l.36.48H218.92l.36-.48Zm-.84-1.8c0-.24.24-.36.48-.36h19.56c.24,0,.48.12.48.36V192c0,.24-.24.36-.48.36H218.92c-.24,0-.48-.12-.48-.36Zm-76-7.44-.36-.48h19.56l-.36.48V181l.36.48H142.12l.36-.48Zm-.84-1.8a.54.54,0,0,1,.48-.36h19.56a.54.54,0,0,1,.48.36v1.8c0,.24-.24.36-.48.36H142.12c-.24,0-.48-.12-.48-.36Zm-76.08,1.44L65.2,182H84.76l-.48.48v-2.88l.48.48H65.2l.36-.48Zm-.84-2.88c0-.24.24-.36.48-.36H84.76a.32.32,0,0,1,.36.36v2.88a.32.32,0,0,1-.36.36H65.2c-.24,0-.48-.12-.48-.36Z"/><path class="cls-9" d="M449.68,194h19.56v.84H449.68Zm-76.8-3.72h19.44v.84H372.88Zm-77-5h19.68v1.32H295.84Zm-76.92,4.32h19.56v.72H218.92Zm-76.8-11h19.56V181H142.12Zm-76.92-2H84.76v3.12H65.2Z"/><path class="cls-10" d="M450,194.8l-.36-.48h19.56l-.36.48V194l.36.48H449.68L450,194m-.84,0c0-.24.24-.36.48-.36h19.56c.24,0,.48.12.48.36v.84c0,.24-.24.36-.48.36H449.68c-.24,0-.48-.12-.48-.36Zm-76-2.88-.36-.48h19.44l-.48.48v-.84l.48.48H372.88l.36-.48Zm-.84-.84c0-.24.24-.36.48-.36h19.44a.32.32,0,0,1,.36.36v.84a.32.32,0,0,1-.36.36H372.88c-.24,0-.48-.12-.48-.36Zm-76.08-3.72-.48-.36h19.68l-.48.36V185.2l.48.36H295.84l.48-.36Zm-.84-1.32c0-.24.12-.48.36-.48h19.68c.24,0,.36.24.36.48v1.32c0,.24-.12.48-.36.48H295.84c-.24,0-.36-.24-.36-.48Zm-76.2,5-.36-.36h19.56l-.36.36v-.72l.36.36H218.92l.36-.36Zm-.84-.72a.52.52,0,0,1,.48-.48h19.56a.52.52,0,0,1,.48.48v.72a.52.52,0,0,1-.48.48H218.92a.52.52,0,0,1-.48-.48Zm-76-8.52-.36-.36h19.56l-.36.36v-2.52l.36.48H142.12l.36-.48Zm-.84-2.52c0-.24.24-.36.48-.36h19.56c.24,0,.48.12.48.36V181a.52.52,0,0,1-.48.48H142.12a.52.52,0,0,1-.48-.48Zm-76.08,1.08-.36-.36H84.76l-.48.36v-3.12l.48.36H65.2l.36-.36Zm-.84-3.12a.52.52,0,0,1,.48-.48H84.76c.24,0,.36.24.36.48v3.12c0,.24-.12.48-.36.48H65.2a.52.52,0,0,1-.48-.48Z"/><path class="cls-11" d="M449.68,192.4h19.56V194H449.68Zm-76.8-4.08h19.44v1.92H372.88Zm-77-17h19.68V185.2H295.84ZM218.92,187.6h19.56v1.92H218.92ZM142.12,176h19.56v2.52H142.12ZM65.2,170H84.76v6.48H65.2Z"/><path class="cls-12" d="M450,194l-.36-.36h19.56l-.36.36V192.4l.36.36H449.68l.36-.36m-.84,0a.52.52,0,0,1,.48-.48h19.56a.52.52,0,0,1,.48.48V194a.52.52,0,0,1-.48.48H449.68a.52.52,0,0,1-.48-.48Zm-76-2.16-.36-.36h19.44l-.48.36v-1.92l.48.36H372.88l.36-.36Zm-.84-1.92a.52.52,0,0,1,.48-.48h19.44c.24,0,.36.24.36.48v1.92c0,.24-.12.48-.36.48H372.88a.52.52,0,0,1-.48-.48Zm-76.08-3.12-.48-.48h19.68l-.48.48V171.28l.48.48H295.84l.48-.48Zm-.84-13.92a.32.32,0,0,1,.36-.36h19.68a.32.32,0,0,1,.36.36V185.2a.32.32,0,0,1-.36.36H295.84a.32.32,0,0,1-.36-.36Zm-76.2,18.24-.36-.48h19.56l-.36.48V187.6l.36.36H218.92l.36-.36Zm-.84-1.92a.52.52,0,0,1,.48-.48h19.56a.52.52,0,0,1,.48.48v1.92a.54.54,0,0,1-.48.36H218.92a.54.54,0,0,1-.48-.36Zm-76-9.12-.36-.36h19.56l-.36.36V176l.36.48H142.12l.36-.48Zm-.84-2.52c0-.24.24-.36.48-.36h19.56c.24,0,.48.12.48.36v2.52a.52.52,0,0,1-.48.48H142.12a.52.52,0,0,1-.48-.48Zm-76.08.48L65.2,176H84.76l-.48.48V170l.48.48H65.2l.36-.48ZM64.72,170c0-.24.24-.36.48-.36H84.76a.32.32,0,0,1,.36.36v6.48a.32.32,0,0,1-.36.36H65.2c-.24,0-.48-.12-.48-.36Z"/><rect class="cls-3" x="62.2" y="196.48" width="435.72" height="0.84"/><text class="cls-13" transform="translate(47.8 199.84)">0</text><text class="cls-13" transform="translate(37.6 174.88)"><tspan class="cls-14">1</tspan><tspan class="cls-15" x="5.05" y="0">0</tspan><tspan x="10.21" y="0">0</tspan></text><text class="cls-13" transform="translate(37.6 149.92)"><tspan class="cls-14">2</tspan><tspan class="cls-15" x="5.05" y="0">0</tspan><tspan x="10.21" y="0">0</tspan></text><text class="cls-13" transform="translate(37.6 124.96)"><tspan class="cls-14">3</tspan><tspan class="cls-15" x="5.05" y="0">0</tspan><tspan x="10.21" y="0">0</tspan></text><text class="cls-13" transform="translate(37.6 100)"><tspan class="cls-14">4</tspan><tspan class="cls-15" x="5.05" y="0">0</tspan><tspan x="10.21" y="0">0</tspan></text><text class="cls-13" transform="translate(37.6 75.16)"><tspan class="cls-14">5</tspan><tspan class="cls-15" x="5.05" y="0">0</tspan><tspan x="10.21" y="0">0</tspan></text><text class="cls-13" transform="translate(37.6 50.2)"><tspan class="cls-14">6</tspan><tspan class="cls-15" x="5.05" y="0">0</tspan><tspan x="10.21" y="0">0</tspan></text><text class="cls-13" transform="translate(62.08 212.8)"><tspan class="cls-16">J</tspan><tspan class="cls-17" x="3.24" y="0">e</tspan><tspan class="cls-18" x="8.17" y="0">t</tspan><tspan class="cls-19" x="11.53" y="0">s</tspan><tspan class="cls-20" x="15.48" y="0">o</tspan><tspan class="cls-21" x="20.64" y="0">n</tspan><tspan class="cls-18" x="26.04" y="0"> </tspan><tspan class="cls-22" x="28.31" y="0">T</tspan><tspan class="cls-23" x="33.11" y="0">X</tspan><tspan class="cls-24" x="38.27" y="0">2</tspan><tspan class="cls-25" x="76.91" y="0">Ac</tspan><tspan class="cls-17" x="86.89" y="0">e</tspan><tspan class="cls-26" x="91.81" y="0">r</tspan><tspan class="cls-18" x="95.41" y="0"> </tspan><tspan class="cls-27" x="97.68" y="0">E</tspan><tspan class="cls-15" x="102.49" y="0">5</tspan><tspan class="cls-28" x="107.65" y="0"> </tspan><tspan class="cls-29" x="109.81" y="0">l</tspan><tspan x="112.09" y="0">a</tspan><tspan class="cls-21" x="116.88" y="0">p</tspan><tspan class="cls-18" x="122.28" y="0">t</tspan><tspan class="cls-20" x="125.64" y="0">o</tspan><tspan class="cls-30" x="130.8" y="0">p</tspan><tspan class="cls-23" x="153.83" y="0">X</tspan><tspan x="159" y="0">P</tspan><tspan class="cls-31" x="164.16" y="0">S</tspan><tspan class="cls-14" x="168.72" y="0">1</tspan><tspan class="cls-15" x="173.77" y="0">5</tspan><tspan class="cls-18" x="178.93" y="0"> </tspan><tspan class="cls-29" x="181.2" y="0">l</tspan><tspan x="183.48" y="0">a</tspan><tspan class="cls-32" x="188.27" y="0">p</tspan><tspan class="cls-33" x="193.55" y="0">t</tspan><tspan class="cls-34" x="196.91" y="0">o</tspan><tspan class="cls-35" x="202.07" y="0">p</tspan><tspan class="cls-14" x="230.75" y="0">O</tspan><tspan class="cls-29" x="237.35" y="0">l</tspan><tspan class="cls-34" x="239.63" y="0">d</tspan><tspan class="cls-18" x="244.78" y="0"> </tspan><tspan class="cls-16" x="247.05" y="0">w</tspan><tspan x="254.25" y="0">o</tspan><tspan class="cls-36" x="259.52" y="0">r</tspan><tspan class="cls-37" x="263.12" y="0">k</tspan><tspan class="cls-38" x="267.57" y="0">s</tspan><tspan class="cls-39" x="271.52" y="0">t</tspan><tspan x="274.77" y="0">a</tspan><tspan class="cls-40" x="279.56" y="0">ti</tspan><tspan class="cls-41" x="285.12" y="0">o</tspan><tspan class="cls-42" x="290.52" y="0">n</tspan><tspan class="cls-41" x="307.43" y="0">H</tspan><tspan class="cls-37" x="313.78" y="0">P</tspan><tspan class="cls-43" x="318.84" y="0"> </tspan><tspan class="cls-44" x="321.12" y="0">w</tspan><tspan class="cls-45" x="328.32" y="0">or</tspan><tspan class="cls-43" x="337.08" y="0">k</tspan><tspan class="cls-39" x="341.63" y="0">s</tspan><tspan class="cls-33" x="345.45" y="0">t</tspan><tspan x="348.81" y="0">ati</tspan></text><text class="cls-13" transform="translate(421.6 212.8)"><tspan class="cls-37">o</tspan><tspan class="cls-46" x="5.17" y="0">n</tspan><tspan class="cls-47" x="24.96" y="0">D</tspan><tspan class="cls-48" x="31.09" y="0">e</tspan><tspan class="cls-49" x="36.01" y="0">l</tspan><tspan class="cls-40" x="38.41" y="0">l</tspan><tspan class="cls-33" x="40.69" y="0"> </tspan><tspan class="cls-50" x="42.96" y="0">s</tspan><tspan class="cls-51" x="46.81" y="0">e</tspan><tspan x="51.96" y="0">r</tspan><tspan class="cls-52" x="55.45" y="0">v</tspan><tspan class="cls-53" x="59.88" y="0">e</tspan><tspan x="64.92" y="0">r</tspan></text><text class="cls-54" transform="translate(31.24 139) rotate(-90)">Ti<tspan class="cls-55" x="7.91" y="0">m</tspan><tspan class="cls-56" x="16.68" y="0">e</tspan><tspan class="cls-57" x="22.2" y="0"> </tspan><tspan class="cls-58" x="24.95" y="0">/</tspan><tspan class="cls-59" x="29.26" y="0">s</tspan></text><text class="cls-60" transform="translate(155.08 29.32)"><tspan class="cls-61">A</tspan><tspan class="cls-62" x="9.12" y="0">d</tspan><tspan class="cls-63" x="17.16" y="0">a</tspan><tspan class="cls-62" x="24.72" y="0">p</tspan><tspan x="32.76" y="0">ti</tspan><tspan class="cls-64" x="41.45" y="0">ve</tspan><tspan class="cls-65" x="56.17" y="0"> </tspan><tspan class="cls-66" x="59.54" y="0">b</tspan><tspan class="cls-67" x="67.71" y="0">an</tspan><tspan class="cls-62" x="83.29" y="0">d</tspan><tspan class="cls-68" x="91.33" y="0">e</tspan><tspan class="cls-67" x="99.12" y="0">d</tspan><tspan class="cls-69" x="107.27" y="0"> </tspan><tspan class="cls-70" x="110.99" y="0">e</tspan><tspan class="cls-71" x="118.57" y="0">v</tspan><tspan class="cls-64" x="125.54" y="0">e</tspan><tspan class="cls-62" x="133.25" y="0">n</tspan><tspan class="cls-64" x="141.29" y="0">t</tspan><tspan class="cls-72" x="146.47" y="0"> </tspan><tspan class="cls-73" x="150.06" y="0">a</tspan><tspan class="cls-64" x="157.62" y="0">lignme</tspan><tspan class="cls-62" x="200.27" y="0">n</tspan><tspan x="208.31" y="0">t</tspan></text><rect class="cls-4" x="45.52" y="229.36" width="5.52" height="5.52"/><path class="cls-5" d="M45.88,234.88l-.36-.48H51l-.48.48v-5.52l.48.36H45.52l.36-.36m-.84,0a.52.52,0,0,1,.48-.48H51a.54.54,0,0,1,.36.48v5.52a.38.38,0,0,1-.36.36H45.52c-.24,0-.48-.12-.48-.36Z"/><text class="cls-13" transform="translate(53.32 235)"><tspan class="cls-17">C</tspan><tspan x="5.28" y="0">P</tspan><tspan class="cls-74" x="10.45" y="0">U</tspan><tspan class="cls-18" x="16.93" y="0"> </tspan><tspan class="cls-20" x="19.2" y="0">o</tspan><tspan class="cls-75" x="24.36" y="0">n</tspan><tspan class="cls-29" x="29.64" y="0">l</tspan><tspan class="cls-76" x="31.92" y="0">y</tspan><tspan class="cls-33" x="36.48" y="0"> </tspan><tspan class="cls-38" x="38.75" y="0">v</tspan><tspan class="cls-17" x="43.31" y="0">e</tspan><tspan x="48.24" y="0">r</tspan><tspan class="cls-19" x="51.72" y="0">s</tspan><tspan class="cls-40" x="55.68" y="0">i</tspan><tspan class="cls-20" x="57.96" y="0">o</tspan><tspan x="63.13" y="0">n</tspan></text><rect class="cls-6" x="134.56" y="229.36" width="5.4" height="5.52"/><path class="cls-7" d="M134.92,234.88l-.36-.48H140l-.36.48v-5.52l.36.36h-5.4l.36-.36m-.84,0a.52.52,0,0,1,.48-.48H140a.52.52,0,0,1,.48.48v5.52c0,.24-.24.36-.48.36h-5.4c-.24,0-.48-.12-.48-.36Z"/><text class="cls-13" transform="translate(142.24 235)"><tspan class="cls-77">c</tspan><tspan class="cls-52" x="4.32" y="0">u</tspan><tspan class="cls-21" x="9.48" y="0">d</tspan><tspan class="cls-20" x="14.88" y="0">a</tspan><tspan class="cls-18" x="19.56" y="0"> </tspan><tspan class="cls-78" x="21.83" y="0">k</tspan><tspan class="cls-17" x="26.51" y="0">e</tspan><tspan class="cls-79" x="31.44" y="0">r</tspan><tspan class="cls-52" x="34.92" y="0">n</tspan><tspan class="cls-74" x="40.09" y="0">e</tspan><tspan class="cls-40" x="45.12" y="0">l</tspan><tspan x="47.41" y="0">s</tspan></text><rect class="cls-8" x="206.32" y="229.36" width="5.52" height="5.52"/><path d="M206.68,234.88l-.36-.48h5.52l-.48.48v-5.52l.48.36h-5.52l.36-.36m-.84,0a.52.52,0,0,1,.48-.48h5.52a.54.54,0,0,1,.36.48v5.52a.38.38,0,0,1-.36.36h-5.52c-.24,0-.48-.12-.48-.36Z"/><text class="cls-13" transform="translate(214 235)"><tspan class="cls-18">data </tspan><tspan class="cls-25" x="20.5" y="0">c</tspan><tspan class="cls-80" x="24.71" y="0">o</tspan><tspan class="cls-52" x="30.1" y="0">n</tspan><tspan class="cls-33" x="35.27" y="0">v</tspan><tspan class="cls-17" x="39.8" y="0">e</tspan><tspan class="cls-33" x="44.72" y="0">rsi</tspan><tspan class="cls-81" x="54.45" y="0">o</tspan><tspan x="59.61" y="0">n</tspan></text><rect class="cls-9" x="291.76" y="229.36" width="5.52" height="5.52"/><path class="cls-10" d="M292.12,234.88l-.36-.48h5.52l-.48.48v-5.52l.48.36h-5.52l.36-.36m-.84,0a.52.52,0,0,1,.48-.48h5.52a.54.54,0,0,1,.36.48v5.52a.38.38,0,0,1-.36.36h-5.52c-.24,0-.48-.12-.48-.36Z"/><text class="cls-13" transform="translate(299.56 235)"><tspan class="cls-25">c</tspan><tspan class="cls-52" x="4.21" y="0">u</tspan><tspan class="cls-82" x="9.37" y="0">d</tspan><tspan class="cls-34" x="14.77" y="0">a</tspan><tspan class="cls-25" x="19.45" y="0"> m</tspan><tspan class="cls-51" x="29.66" y="0">e</tspan><tspan class="cls-83" x="34.82" y="0">m</tspan><tspan class="cls-25" x="42.75" y="0">co</tspan><tspan class="cls-84" x="52.21" y="0">p</tspan><tspan class="cls-85" x="57.49" y="0">i</tspan><tspan class="cls-51" x="59.65" y="0">e</tspan><tspan x="64.81" y="0">s</tspan></text><rect class="cls-11" x="380.92" y="229.36" width="5.52" height="5.52"/><path class="cls-12" d="M381.4,234.88l-.48-.48h5.52l-.48.48v-5.52l.48.36h-5.52l.48-.36m-.84,0c0-.24.12-.48.36-.48h5.52c.24,0,.36.24.36.48v5.52a.32.32,0,0,1-.36.36h-5.52a.32.32,0,0,1-.36-.36Z"/><text class="cls-13" transform="translate(388.72 235)">load <tspan class="cls-85" x="19.88" y="0">i</tspan><tspan x="22.04" y="0">m</tspan><tspan class="cls-86" x="30.03" y="0">b</tspan><tspan x="35.43" y="0">ala</tspan><tspan class="cls-52" x="47.31" y="0">n</tspan><tspan x="52.47" y="0">c</tspan><tspan class="cls-53" x="56.7" y="0">e</tspan><tspan class="cls-37" x="61.74" y="0"> </tspan><tspan class="cls-41" x="63.9" y="0">o</tspan><tspan class="cls-52" x="69.29" y="0">n</tspan><tspan class="cls-33" x="74.46" y="0"> </tspan><tspan class="cls-87" x="76.73" y="0">C</tspan><tspan x="82.12" y="0">PU</tspan></text><g class="cls-88"><g class="cls-89"><path class="cls-3" d="M7.24,248.2l-.36-.48H517.12l-.36.48V6l.36.48H6.88L7.24,6M6.4,6c0-.24.24-.36.48-.36H517.12a.32.32,0,0,1,.36.36V248.2a.38.38,0,0,1-.36.36H6.88a.54.54,0,0,1-.48-.36Z"/></g></g></svg>