<svg id="Layer_1" data-name="Layer 1" xmlns="http://www.w3.org/2000/svg" xmlns:xlink="http://www.w3.org/1999/xlink" viewBox="0 0 350 244"><defs><style>.cls-1,.cls-3,.cls-5,.cls-7{fill:none;}.cls-2{fill:#fff;}.cls-3{stroke:#d9d9d9;}.cls-3,.cls-5,.cls-7{stroke-linejoin:round;stroke-width:0.71px;}.cls-4{fill:#edb5b5;}.cls-5{stroke:#c00000;}.cls-6{fill:#deebf7;}.cls-7{stroke:#002060;}.cls-8{clip-path:url(#clip-path);}.cls-9{font-size:8.57px;}.cls-11,.cls-22,.cls-31,.cls-35,.cls-41,.cls-47,.cls-9{font-family:Calibri;}.cls-10{letter-spacing:-0.01em;}.cls-11,.cls-22,.cls-31,.cls-35{font-size:8.54px;}.cls-12{letter-spacing:0em;}.cls-13{letter-spacing:0em;}.cls-14{letter-spacing:0em;}.cls-15{letter-spacing:0.01em;}.cls-16{letter-spacing:-0.01em;}.cls-17{letter-spacing:0.01em;}.cls-18{letter-spacing:0em;}.cls-19{letter-spacing:0em;}.cls-20{letter-spacing:-0.01em;}.cls-21{letter-spacing:0em;}.cls-22,.cls-27{letter-spacing:0em;}.cls-23{letter-spacing:0.01em;}.cls-24{letter-spacing:-0.01em;}.cls-25{letter-spacing:0em;}.cls-26{letter-spacing:0em;}.cls-28{letter-spacing:0em;}.cls-29{letter-spacing:0.01em;}.cls-30{letter-spacing:0em;}.cls-31{letter-spacing:0.01em;}.cls-32{letter-spacing:0em;}.cls-33{letter-spacing:0.01em;}.cls-34{letter-spacing:0em;}.cls-35,.cls-36{letter-spacing:0.01em;}.cls-37{letter-spacing:-0.01em;}.cls-38{letter-spacing:0em;}.cls-39{letter-spacing:0.01em;}.cls-40{letter-spacing:0.01em;}.cls-41{font-size:9.46px;}.cls-42{letter-spacing:-0.01em;}.cls-43{letter-spacing:0em;}.cls-44{letter-spacing:0em;}.cls-45{letter-spacing:0em;}.cls-46{letter-spacing:0.03em;}.cls-47{font-size:13.34px;}.cls-48{letter-spacing:0em;}.cls-49{letter-spacing:-0.01em;}.cls-50{letter-spacing:0em;}.cls-51{letter-spacing:-0.02em;}.cls-52{letter-spacing:0em;}.cls-53{letter-spacing:-0.01em;}.cls-54{letter-spacing:0em;}.cls-55{letter-spacing:-0.01em;}.cls-56{letter-spacing:0em;}.cls-57{letter-spacing:0em;}.cls-58{letter-spacing:0em;}.cls-59{letter-spacing:0em;}.cls-60{letter-spacing:0em;}.cls-61{letter-spacing:0em;}</style><clipPath id="clip-path"><rect class="cls-1" x="4.64" y="5.32" width="340.68" height="234.48"/></clipPath></defs><title>Artboard 1</title><rect class="cls-2" x="4.58" y="5.26" width="340.73" height="234.6"/><path class="cls-3" d="M58.31,40.5H334.86M58.31,58.61H334.86M58.31,76.73H334.86M58.31,95H334.86M58.31,113.1H334.86M58.31,131.22H334.86M58.31,149.35H334.86M58.31,167.48H334.86"/><path class="cls-4" d="M300.13,168.84h10.26v16.81H300.13ZM254,144h10.38v41.66H254ZM207.91,64.42h10.37V185.65H207.91Zm-46.06,88.81h10.26v32.42H161.85Zm-46.17-61h10.38v93.41H115.68ZM69.63,68.87H80V185.65H69.63Z"/><path class="cls-5" d="M300.13,168.84h10.26v16.81H300.13ZM254,144h10.38v41.66H254ZM207.91,64.42h10.37V185.65H207.91Zm-46.06,88.81h10.26v32.42H161.85Zm-46.17-61h10.38v93.41H115.68ZM69.63,68.87H80V185.65H69.63Z"/><path class="cls-6" d="M313.24,173.63H323.5v12H313.24Zm-46.17-6.15h10.38v18.17H267.07Zm-46-33.29h10.37v51.46H221ZM175,170.1h10.26v15.55H175Zm-46.17-37.39h10.38v52.94H128.79Zm-46,1.48H93.11v51.46H82.74Z"/><path class="cls-7" d="M313.24,173.63H323.5v12H313.24Zm-46.17-6.15h10.38v18.17H267.07Zm-46-33.29h10.37v51.46H221ZM175,170.1h10.26v15.55H175Zm-46.17-37.39h10.38v52.94H128.79Zm-46,1.48H93.11v51.46H82.74Z"/><line class="cls-3" x1="58.31" y1="185.65" x2="334.86" y2="185.65"/><g class="cls-8"><text class="cls-9" transform="translate(39.58 188.08)">0.0</text></g><g class="cls-8"><text class="cls-9" transform="translate(30.92 169.94)">1<tspan class="cls-10" x="4.34" y="0">0</tspan><tspan x="8.64" y="0">0.0</tspan></text></g><g class="cls-8"><text class="cls-11" transform="translate(30.92 151.79)">20<tspan class="cls-12" x="8.66" y="0">0</tspan><tspan class="cls-13" x="12.97" y="0">.0</tspan></text></g><g class="cls-8"><text class="cls-11" transform="translate(30.92 133.65)">30<tspan class="cls-12" x="8.66" y="0">0</tspan><tspan class="cls-13" x="12.97" y="0">.0</tspan></text></g><g class="cls-8"><text class="cls-11" transform="translate(30.92 115.5)">40<tspan class="cls-12" x="8.66" y="0">0</tspan><tspan class="cls-13" x="12.97" y="0">.0</tspan></text></g><g class="cls-8"><text class="cls-11" transform="translate(30.92 97.36)">50<tspan class="cls-12" x="8.66" y="0">0</tspan><tspan class="cls-13" x="12.97" y="0">.0</tspan></text></g><g class="cls-8"><text class="cls-9" transform="translate(30.92 79.19)">6<tspan class="cls-10" x="4.34" y="0">0</tspan><tspan x="8.64" y="0">0.0</tspan></text></g><g class="cls-8"><text class="cls-9" transform="translate(30.92 61.05)">7<tspan class="cls-10" x="4.34" y="0">0</tspan><tspan x="8.64" y="0">0.0</tspan></text></g><g class="cls-8"><text class="cls-11" transform="translate(30.92 42.9)">80<tspan class="cls-12" x="8.66" y="0">0</tspan><tspan class="cls-13" x="12.97" y="0">.0</tspan></text></g><g class="cls-8"><text class="cls-11" transform="translate(62.84 199.22)">Je<tspan class="cls-14" x="6.98" y="0">t</tspan><tspan class="cls-15" x="9.82" y="0">s</tspan><tspan class="cls-16" x="13.24" y="0">o</tspan><tspan class="cls-17" x="17.7" y="0">n</tspan><tspan x="22.28" y="0" xml:space="preserve"> TX2</tspan></text></g><g class="cls-8"><text class="cls-11" transform="translate(114.37 199.22)"><tspan class="cls-16">A</tspan><tspan class="cls-18" x="4.9" y="0">c</tspan><tspan class="cls-19" x="8.54" y="0">e</tspan><tspan class="cls-17" x="12.77" y="0">r</tspan><tspan x="15.83" y="0"> </tspan><tspan class="cls-20" x="17.76" y="0">E</tspan><tspan class="cls-21" x="21.88" y="0">5</tspan></text></g><g class="cls-8"><text class="cls-22" transform="translate(116.29 209.66)">l<tspan class="cls-21" x="1.93" y="0">a</tspan><tspan class="cls-23" x="6.02" y="0">p</tspan><tspan class="cls-12" x="10.58" y="0">t</tspan><tspan class="cls-24" x="13.41" y="0">o</tspan><tspan class="cls-13" x="17.86" y="0">p</tspan></text></g><g class="cls-8"><text class="cls-11" transform="translate(150.68 199.22)"><tspan class="cls-25">X</tspan><tspan class="cls-26" x="4.44" y="0">P</tspan><tspan class="cls-27" x="8.89" y="0">S</tspan><tspan x="12.78" y="0">15</tspan><tspan class="cls-28" x="21.44" y="0"> </tspan><tspan x="23.39" y="0">la</tspan><tspan class="cls-29" x="29.45" y="0">p</tspan><tspan x="33.99" y="0">t</tspan><tspan class="cls-30" x="36.85" y="0">o</tspan><tspan class="cls-13" x="41.31" y="0">p</tspan></text></g><g class="cls-8"><text class="cls-31" transform="translate(213.63 199.22)">O<tspan class="cls-32" x="5.7" y="0">ld</tspan></text></g><g class="cls-8"><text class="cls-11" transform="translate(198.87 209.66)"><tspan class="cls-29">w</tspan><tspan class="cls-24" x="6.16" y="0">o</tspan><tspan x="10.6" y="0">rk</tspan><tspan class="cls-33" x="17.47" y="0">s</tspan><tspan x="20.88" y="0">tati</tspan><tspan class="cls-34" x="32.59" y="0">o</tspan><tspan class="cls-32" x="37.12" y="0">n</tspan></text></g><g class="cls-8"><text class="cls-35" transform="translate(260.91 199.22)">H<tspan class="cls-32" x="5.38" y="0">P</tspan></text></g><g class="cls-8"><text class="cls-11" transform="translate(244.98 209.66)"><tspan class="cls-36">w</tspan><tspan class="cls-37" x="6.16" y="0">o</tspan><tspan x="10.6" y="0">rk</tspan><tspan class="cls-33" x="17.47" y="0">s</tspan><tspan x="20.88" y="0">tati</tspan><tspan class="cls-34" x="32.59" y="0">o</tspan><tspan class="cls-32" x="37.12" y="0">n</tspan></text></g><g class="cls-8"><text class="cls-11" transform="translate(293.36 199.22)">D<tspan class="cls-38" x="5.26" y="0">e</tspan><tspan class="cls-39" x="9.49" y="0">l</tspan><tspan x="11.54" y="0">l </tspan><tspan class="cls-27" x="15.44" y="0">s</tspan><tspan class="cls-40" x="18.75" y="0">e</tspan><tspan x="23.07" y="0">rver</tspan></text></g><g class="cls-8"><text class="cls-41" transform="translate(25.47 127.48) rotate(-90)"><tspan class="cls-42">T</tspan><tspan class="cls-43" x="4.56" y="0">i</tspan><tspan class="cls-44" x="6.73" y="0">m</tspan><tspan class="cls-45" x="14.26" y="0">e</tspan><tspan class="cls-46" x="18.94" y="0"> </tspan><tspan x="21.33" y="0">/s</tspan></text></g><g class="cls-8"><text class="cls-47" transform="translate(96.58 25.05)"><tspan class="cls-48">O</tspan><tspan class="cls-49" x="8.78" y="0">v</tspan><tspan class="cls-50" x="14.72" y="0">e</tspan><tspan class="cls-51" x="21.35" y="0">r</tspan><tspan class="cls-50" x="25.81" y="0">al</tspan><tspan class="cls-52" x="35.26" y="0">l</tspan><tspan class="cls-53" x="38.35" y="0"> </tspan><tspan class="cls-54" x="41.21" y="0">ru</tspan><tspan class="cls-55" x="52.87" y="0">n</tspan><tspan class="cls-50" x="59.69" y="0">tim</tspan><tspan class="cls-56" x="77.79" y="0">e</tspan><tspan class="cls-57" x="84.39" y="0"> </tspan><tspan x="87.46" y="0">in</tspan><tspan class="cls-48" x="97.53" y="0">c</tspan><tspan class="cls-54" x="103.12" y="0">lu</tspan><tspan class="cls-58" x="113.19" y="0">d</tspan><tspan class="cls-59" x="120.14" y="0">ing</tspan><tspan class="cls-60" x="136.49" y="0"> </tspan><tspan class="cls-56" x="139.55" y="0">I</tspan><tspan x="142.87" y="0">/O</tspan></text></g><rect class="cls-4" x="128.81" y="223.79" width="4.7" height="4.7"/><rect class="cls-5" x="128.81" y="223.79" width="4.7" height="4.7"/><g class="cls-8"><text class="cls-11" transform="translate(135.54 228.59)">f5<tspan class="cls-29" x="6.94" y="0">c</tspan><tspan x="10.6" y="0" xml:space="preserve"> C</tspan><tspan class="cls-16" x="17.09" y="0">P</tspan><tspan x="21.46" y="0">U</tspan></text></g><rect class="cls-6" x="171.3" y="223.79" width="4.7" height="4.7"/><rect class="cls-7" x="171.3" y="223.79" width="4.7" height="4.7"/><g class="cls-8"><text class="cls-11" transform="translate(178.04 228.59)">f5<tspan class="cls-61" x="6.94" y="0">c</tspan><tspan x="10.58" y="0"> </tspan><tspan class="cls-14" x="12.51" y="0">G</tspan><tspan x="17.88" y="0">PU+CPU</tspan></text></g><rect class="cls-3" x="4.58" y="5.26" width="340.73" height="234.6"/></svg>