<svg id="Layer_1" data-name="Layer 1" xmlns="http://www.w3.org/2000/svg" xmlns:xlink="http://www.w3.org/1999/xlink" viewBox="0 0 504 367"><defs><style>.cls-1,.cls-3,.cls-5,.cls-7{fill:none;}.cls-2{fill:#fff;}.cls-3{stroke:#d9d9d9;}.cls-3,.cls-5,.cls-7{stroke-linejoin:round;stroke-width:1.02px;}.cls-4{fill:#edb5b5;}.cls-5{stroke:#c00000;}.cls-6{fill:#deebf7;}.cls-7{stroke:#002060;}.cls-8{clip-path:url(#clip-path);}.cls-9{font-size:12.22px;}.cls-10,.cls-42,.cls-46,.cls-9{font-family:Calibri;}.cls-10{font-size:12.24px;}.cls-11{letter-spacing:0em;}.cls-12{letter-spacing:0em;}.cls-13{letter-spacing:-0.01em;}.cls-14{letter-spacing:0.01em;}.cls-15{letter-spacing:0em;}.cls-16{letter-spacing:0.01em;}.cls-17{letter-spacing:-0.01em;}.cls-18{letter-spacing:0em;}.cls-19{letter-spacing:0.01em;}.cls-20{letter-spacing:-0.01em;}.cls-21{letter-spacing:0em;}.cls-22{letter-spacing:0em;}.cls-23{letter-spacing:-0.01em;}.cls-24{letter-spacing:0em;}.cls-25{letter-spacing:0.01em;}.cls-26{letter-spacing:-0.01em;}.cls-27{letter-spacing:0em;}.cls-28{letter-spacing:-0.01em;}.cls-29{letter-spacing:0em;}.cls-30{letter-spacing:0.01em;}.cls-31{letter-spacing:0em;}.cls-32{letter-spacing:0em;}.cls-33{letter-spacing:0em;}.cls-34{letter-spacing:-0.01em;}.cls-35{letter-spacing:0em;}.cls-36{letter-spacing:0em;}.cls-37{letter-spacing:-0.01em;}.cls-38{letter-spacing:0.01em;}.cls-39{letter-spacing:0em;}.cls-40{letter-spacing:0.01em;}.cls-41{letter-spacing:0em;}.cls-42{font-size:13.54px;}.cls-43{letter-spacing:-0.01em;}.cls-44{letter-spacing:0em;}.cls-45{letter-spacing:0.02em;}.cls-46{font-size:19.08px;}.cls-47{letter-spacing:-0.01em;}.cls-48{letter-spacing:0em;}.cls-49{letter-spacing:-0.02em;}.cls-50{letter-spacing:0em;}.cls-51{letter-spacing:0em;}.cls-52{letter-spacing:-0.01em;}.cls-53{letter-spacing:0em;}.cls-54{letter-spacing:-0.01em;}.cls-55{letter-spacing:-0.01em;}.cls-56{letter-spacing:0em;}.cls-57{letter-spacing:0em;}.cls-58{letter-spacing:-0.01em;}.cls-59{letter-spacing:-0.02em;}.cls-60{letter-spacing:0em;}.cls-61{letter-spacing:0em;}.cls-62{letter-spacing:-0.01em;}.cls-63{letter-spacing:0em;}.cls-64{letter-spacing:0em;}.cls-65{letter-spacing:0em;}</style><clipPath id="clip-path"><rect class="cls-1" x="6" y="7.84" width="493.2" height="355.2"/></clipPath></defs><title>Artboard 1</title><rect class="cls-2" x="5.97" y="7.95" width="493.24" height="355.18"/><path class="cls-3" d="M73.52,58.32H484.26M73.52,90.76H484.26M73.52,123.2H484.26M73.52,155.8H484.26M73.52,188.24H484.26M73.52,220.67H484.26M73.52,253.11H484.26"/><path class="cls-4" d="M432.65,258.33H448v27.29H432.65Zm-68.46-46.46h15.32v73.75H364.19ZM295.73,69.24h15.32V285.62H295.73ZM227.26,227.85h15.33v57.77H227.26ZM158.8,121.57h15.32V285.62H158.8Zm-68.46-44h15.32V285.62H90.34Z"/><path class="cls-5" d="M432.65,258.33H448v27.29H432.65Zm-68.46-46.46h15.32v73.75H364.19ZM295.73,69.24h15.32V285.62H295.73ZM227.26,227.85h15.33v57.77H227.26ZM158.8,121.57h15.32V285.62H158.8Zm-68.46-44h15.32V285.62H90.34Z"/><path class="cls-6" d="M452.05,271.7h15.32v13.92H452.05Zm-68.46-17.61h15.48v31.53H383.59Zm-68.46-59.5h15.48v91H315.13Zm-68.47,63.9h15.49v27.13H246.66ZM178.2,223.28h15.49v62.34H178.2Zm-68.3-28.69h15.32v91H109.9Z"/><path class="cls-7" d="M452.05,271.7h15.32v13.92H452.05Zm-68.46-17.61h15.48v31.53H383.59Zm-68.46-59.5h15.48v91H315.13Zm-68.47,63.9h15.49v27.13H246.66ZM178.2,223.28h15.49v62.34H178.2Zm-68.3-28.69h15.32v91H109.9Z"/><line class="cls-3" x1="73.52" y1="285.62" x2="484.26" y2="285.62"/><g class="cls-8"><text class="cls-9" transform="translate(55.99 289.14)">0</text></g><g class="cls-8"><text class="cls-10" transform="translate(43.61 256.65)">100</text></g><g class="cls-8"><text class="cls-10" transform="translate(43.61 224.18)">200</text></g><g class="cls-8"><text class="cls-10" transform="translate(43.61 191.7)">300</text></g><g class="cls-8"><text class="cls-9" transform="translate(43.61 159.23)">400</text></g><g class="cls-8"><text class="cls-9" transform="translate(43.61 126.76)">500</text></g><g class="cls-8"><text class="cls-9" transform="translate(43.61 94.29)">600</text></g><g class="cls-8"><text class="cls-9" transform="translate(43.61 61.82)">700</text></g><g class="cls-8"><text class="cls-10" transform="translate(81.26 305.03)">J<tspan class="cls-11" x="3.9" y="0">e</tspan><tspan x="9.97" y="0">t</tspan><tspan class="cls-12" x="14.07" y="0">s</tspan><tspan class="cls-13" x="18.92" y="0">o</tspan><tspan class="cls-14" x="25.29" y="0">n</tspan><tspan x="31.79" y="0"> </tspan><tspan class="cls-15" x="34.56" y="0">T</tspan><tspan x="40.46" y="0">X2</tspan></text></g><g class="cls-8"><text class="cls-10" transform="translate(157.49 305.03)"><tspan class="cls-15">A</tspan><tspan x="7.02" y="0">c</tspan><tspan class="cls-11" x="12.2" y="0">e</tspan><tspan class="cls-16" x="18.26" y="0">r</tspan><tspan x="22.64" y="0"> </tspan><tspan class="cls-17" x="25.41" y="0">E</tspan><tspan x="31.26" y="0">5</tspan></text></g><g class="cls-8"><text class="cls-9" transform="translate(160.22 319.96)"><tspan class="cls-18">l</tspan><tspan x="2.77" y="0">a</tspan><tspan class="cls-19" x="8.62" y="0">p</tspan><tspan x="15.11" y="0">t</tspan><tspan class="cls-20" x="19.2" y="0">o</tspan><tspan class="cls-21" x="25.56" y="0">p</tspan></text></g><g class="cls-8"><text class="cls-10" transform="translate(211.97 305.03)">X<tspan class="cls-22" x="6.35" y="0">P</tspan><tspan class="cls-23" x="12.7" y="0">S</tspan><tspan x="18.25" y="0">15 </tspan><tspan class="cls-24" x="33.43" y="0">l</tspan><tspan x="36.21" y="0">a</tspan><tspan class="cls-25" x="42.07" y="0">p</tspan><tspan x="48.6" y="0">t</tspan><tspan class="cls-26" x="52.7" y="0">o</tspan><tspan x="59.05" y="0">p</tspan></text></g><g class="cls-8"><text class="cls-10" transform="translate(304.54 305.03)">Old</text></g><g class="cls-8"><text class="cls-9" transform="translate(283.44 319.96)"><tspan class="cls-27">w</tspan><tspan class="cls-28" x="8.77" y="0">o</tspan><tspan class="cls-29" x="15.11" y="0">r</tspan><tspan x="19.35" y="0">k</tspan><tspan class="cls-30" x="24.9" y="0">s</tspan><tspan x="29.74" y="0">ta</tspan><tspan class="cls-31" x="39.68" y="0">ti</tspan><tspan class="cls-32" x="46.45" y="0">o</tspan><tspan x="52.93" y="0">n</tspan></text></g><g class="cls-8"><text class="cls-10" transform="translate(374.69 305.03)"><tspan class="cls-33">H</tspan><tspan x="7.67" y="0">P</tspan></text></g><g class="cls-8"><text class="cls-9" transform="translate(351.91 319.96)"><tspan class="cls-27">w</tspan><tspan class="cls-34" x="8.77" y="0">o</tspan><tspan class="cls-29" x="15.14" y="0">r</tspan><tspan x="19.37" y="0">k</tspan><tspan class="cls-35" x="24.93" y="0">s</tspan><tspan x="29.76" y="0">ta</tspan><tspan class="cls-31" x="39.71" y="0">ti</tspan><tspan class="cls-32" x="46.48" y="0">o</tspan><tspan x="52.96" y="0">n</tspan></text></g><g class="cls-8"><text class="cls-10" transform="translate(423.65 305.03)"><tspan class="cls-36">D</tspan><tspan class="cls-37" x="7.49" y="0">e</tspan><tspan class="cls-38" x="13.52" y="0">l</tspan><tspan class="cls-39" x="16.43" y="0">l</tspan><tspan x="19.19" y="0"> </tspan><tspan class="cls-37" x="21.96" y="0">s</tspan><tspan class="cls-40" x="26.68" y="0">e</tspan><tspan class="cls-41" x="32.86" y="0">r</tspan><tspan x="37.09" y="0">v</tspan><tspan class="cls-39" x="42.62" y="0">e</tspan><tspan x="48.66" y="0">r</tspan></text></g><g class="cls-8"><text class="cls-42" transform="translate(35.83 192.5) rotate(-90)"><tspan class="cls-43">T</tspan><tspan x="6.53" y="0">i</tspan><tspan class="cls-43" x="9.63" y="0">m</tspan><tspan class="cls-44" x="20.38" y="0">e</tspan><tspan class="cls-45" x="27.06" y="0"> </tspan><tspan x="30.45" y="0">/s</tspan></text></g><g class="cls-8"><text class="cls-46" transform="translate(149.04 36.26)">O<tspan class="cls-47" x="12.63" y="0">v</tspan><tspan class="cls-48" x="21.08" y="0">e</tspan><tspan class="cls-49" x="30.57" y="0">r</tspan><tspan class="cls-50" x="36.9" y="0">al</tspan><tspan class="cls-51" x="50.42" y="0">l</tspan><tspan class="cls-52" x="54.83" y="0"> </tspan><tspan x="58.92" y="0">ti</tspan><tspan class="cls-53" x="69.55" y="0">m</tspan><tspan class="cls-48" x="84.73" y="0">e</tspan><tspan class="cls-54" x="94.23" y="0"> </tspan><tspan class="cls-55" x="98.43" y="0">f</tspan><tspan class="cls-56" x="103.98" y="0">o</tspan><tspan class="cls-57" x="114.08" y="0">r</tspan><tspan class="cls-58" x="120.73" y="0"> </tspan><tspan x="124.86" y="0">p</tspan><tspan class="cls-59" x="134.88" y="0">r</tspan><tspan class="cls-51" x="141.19" y="0">o</tspan><tspan class="cls-60" x="151.29" y="0">c</tspan><tspan x="159.3" y="0">es</tspan><tspan class="cls-61" x="176.26" y="0">s</tspan><tspan x="183.74" y="0">ing</tspan></text></g><rect class="cls-4" x="186.61" y="340.15" width="6.71" height="6.71"/><rect class="cls-5" x="186.61" y="340.15" width="6.71" height="6.71"/><g class="cls-8"><text class="cls-10" transform="translate(196.22 347.03)">f5c C<tspan class="cls-62" x="24.41" y="0">P</tspan><tspan class="cls-63" x="30.63" y="0">U</tspan></text></g><rect class="cls-6" x="247.38" y="340.15" width="6.71" height="6.71"/><rect class="cls-7" x="247.38" y="340.15" width="6.71" height="6.71"/><g class="cls-8"><text class="cls-10" transform="translate(256.99 347.03)">f5<tspan class="cls-64" x="9.94" y="0">c</tspan><tspan x="15.15" y="0" xml:space="preserve"> GPU</tspan><tspan class="cls-23" x="39.82" y="0">+</tspan><tspan class="cls-65" x="45.84" y="0">CPU</tspan></text></g><rect class="cls-3" x="5.97" y="7.95" width="493.24" height="355.18"/></svg>